---
cssclass: flatBlue
creation date: 2024-02-10 19:43
modification date: Saturday 10th February 2024 19:43:52
tags: tcc, aes
category:
folder: 
priority: null
---

- no suffix -->> 1280x1712
- 1080.jpg  -->> 1080x1445
- 500.jpg   -->> 500x669
- 800.jpg   -->> 800x1070

1280x1712
1080x1445
500x669
800x1070

Input #0, image2, from '636e5d5c6814353c1711b2bd_Paul-Furey-Team-_0001_Paul-p-1080.jpg':
  Stream #0:0: Video: mjpeg (Baseline), yuvj420p(pc, bt470bg/unknown/unknown), 1080x1445, 25 fps, 25 tbr, 25 tbn
Input #0, image2, from '636e5d5c6814353c1711b2bd_Paul-Furey-Team-_0001_Paul-p-500.jpg':
  Stream #0:0: Video: mjpeg (Baseline), yuvj420p(pc, bt470bg/unknown/unknown), 500x669, 25 fps, 25 tbr, 25 tbn
Input #0, image2, from '636e5d5c6814353c1711b2bd_Paul-Furey-Team-_0001_Paul-p-800.jpg':
  Stream #0:0: Video: mjpeg (Baseline), yuvj420p(pc, bt470bg/unknown/unknown), 800x1070, 25 fps, 25 tbr, 25 tbn
ffprobe version 7.0.1 Copyright (c) 2007-2024 the FFmpeg developers
Input #0, image2, from '636e5d5c6814353c1711b2bd_Paul-Furey-Team-_0001_Paul.jpg':
  Stream #0:0: Video: mjpeg (Baseline), yuvj444p(pc, bt470bg/unknown/unknown), 1280x1712, 25 fps, 25 tbr, 25 tbn

